<svg xmlns="http://www.w3.org/2000/svg" xmlns:xlink="http://www.w3.org/1999/xlink" version="1.1" x="0px" y="0px" viewBox="0 0 100 100" enable-background="new 0 0 100 100" xml:space="preserve"><path d="M86.547,97.711c0,0-11.271,1.141-18.314-0.102c-7.045-1.238-18.269-6.416-18.269-6.416s12.312-1.348,19.447-0.09  C76.549,92.363,86.547,97.711,86.547,97.711z"></path><path d="M97.15,70.277c0,0-12.092,10.074-21.166,14.115c-9.076,4.041-26.018,6.799-26.018,6.799s13.127-11.113,22.323-15.207  C81.484,71.889,97.15,70.277,97.15,70.277z"></path><path d="M89.117,31.125c0,0-6.469,20.878-13.982,32.451C67.621,75.146,49.97,91.178,49.97,91.178s6.885-22.877,14.5-34.602  C72.086,44.852,89.117,31.125,89.117,31.125z"></path><path d="M50.117,1.59c0,0,7.436,26.292,7.436,43.537c0,17.246-7.588,46.066-7.588,46.066s-8.356-28.668-8.356-46.144  S50.117,1.59,50.117,1.59z"></path><path d="M11.026,31.002c0,0,16.444,14.4,23.958,25.971c7.514,11.572,14.979,34.215,14.979,34.215s-18.096-15.594-25.71-27.32  C16.639,52.143,11.026,31.002,11.026,31.002z"></path><path d="M2.849,70.123c0,0,15.577,2.25,24.652,6.289c9.075,4.041,22.463,14.787,22.463,14.787s-17.043-2.32-26.238-6.416  C14.529,80.689,2.849,70.123,2.849,70.123z"></path><path d="M13.365,97.582c0,0,10.202-4.93,17.246-6.172c7.044-1.242,19.361-0.217,19.361-0.217s-11.107,5.475-18.244,6.734  C24.59,99.188,13.365,97.582,13.365,97.582z"></path></svg>