<svg xmlns="http://www.w3.org/2000/svg" xmlns:xlink="http://www.w3.org/1999/xlink" version="1.1" x="0px" y="0px" viewBox="0 0 500 500" style="enable-background:new 0 0 500 500;" xml:space="preserve"><style type="text/css">
	.st0{display:none;}
	.st1{fill:#9BD59A;}
	.st2{fill:#BAD4C7;}
	.st3{fill:#006030;}
	.st4{fill:#037F3E;}
	.st5{fill:none;stroke:#FF00FF;stroke-miterlimit:10;}
	.st6{display:inline;fill:none;stroke:#FF00FF;stroke-miterlimit:10;}
</style><g><path d="M480.2,331.8c-16.6-7.3-48.3-15.9-103.8-13.8l-46.5,1.8l32.3-33.5c0.2-0.2,23.2-24.3,44.9-57.6c17.9-27.5,29.7-53.3,35-76   c-29.4,10.3-80.6,35.3-126.3,92.7l-44.6,55.9l11.4-70.6C282.9,229.6,304.4,126,250,40c-54.4,86-32.9,189.6-32.7,190.7l11.4,70.6   l-44.6-55.9C138.4,188,87.3,163,57.8,152.7c5.3,22.7,17.1,48.5,35,76c21.7,33.3,44.7,57.4,44.9,57.6l32.3,33.5l-46.5-1.8   c-55.5-2.1-87.2,6.4-103.8,13.8c52.6,41.2,139.6,33.5,140.6,33.4l50-2L181,395.7c-18.8,19.7-19.9,34.2-26,44.4   c36.8-20.6,62.2-40.4,62.6-40.8l23.7-19.7l8.7,80.7l8.7-80.7l23.7,19.7c0.4,0.4,25.9,20.2,62.6,40.8c-6.1-10.2-7.2-24.7-26-44.4   l-29.4-32.4l50,2C340.6,365.4,427.6,373.1,480.2,331.8z"></path></g><g class="st0"><rect x="10" y="10" class="st6" width="480" height="480"></rect></g></svg>