<svg xmlns="http://www.w3.org/2000/svg" xmlns:xlink="http://www.w3.org/1999/xlink" xmlns:a="http://ns.adobe.com/AdobeSVGViewerExtensions/3.0/" version="1.1" x="0px" y="0px" viewBox="-7.027 -5.683 100 100" enable-background="new -7.027 -5.683 100 100" xml:space="preserve"><path fill="#000000" d="M44.216,0.1c-0.881,0.94-1.607,4.965-1.706,6.169C42.467,6.875,41.646,6.9,41.464,7.72  c-0.192,0.862-0.377,1.744-0.332,2.633c-2.352-2.099-1.931,3.276-1.705,4.488c-4.775-2.164-0.794,2.432-2.167,4.487  c-0.261,0.26-1.404-1.112-1.782-0.733c-0.458,0.424,0.141,2.317,0.189,2.835c0.034,0.36,0.604,2.942,1.024,2.942  c-0.657,0-1.392-0.948-2.03-0.948c-1.118,0,1.589,5.234,1.812,5.826c0.025,0.071-1.839-0.911-2.001-0.911  c-1.15,0-0.326,1.259-0.326,2.189c0,0.193,1.515,4.162,1.947,3.873c-0.437,0.436-2.095-1.367-2.517-1.137  c-1.354,0.736,0.746,4.479,1.232,5.209c-0.569-0.797-3.12,0.595-2.119,1.012c-0.392-0.146-1.09-3.175-1.09-3.398  c0-1.087-1.418,0.434-1.705-0.118c-0.144-0.281-1.676-2.303-1.888-2.303c-0.128,0-1.383,2.441-1.516,2.665  c0.228,0-0.503-3.172-0.983-3.611c-1.884-1.416-0.643,0.178-2.083,0.178c0.361,0-0.778-3.163-1.094-3.483  c-1.296-1.317-0.828,1.085-1.683,1.085c0.278,0-1.065-2.845-1.065-3.014c0-1.893-1.518,0.308-1.464,0.317  c0.066,0.012-0.817-2.045-0.887-2.264c-0.467-1.404-0.882-0.278-1.319-0.278c-0.266,0-3.73-3.325-3.73-3.701  c0-0.681-2.843-4.314-3.445-4.387c-1.306-0.187,3.073,7.984,2.776,8.875c-0.135,0.472-1.163-0.22-1.096,0.414  c-0.044,0.56,0.51,1.152,0.793,1.585c0.178,0.272,1.168,1.437,1.177,1.754c0.005,0.219-1.337-0.245-1.509,0.083  c-0.22,0.368,0.474,0.87,0.474,1.178c0,0.248,2.172,3.411,2.356,3.227c-0.173,0.189-2.079,0.132-2.279-0.042  c-0.142-0.114,0.63,1.729,0.781,1.936c-0.046-0.061,2.753,2.48,2.753,2.149c0,1.005-3.673-0.369-1.719,1.613  c1.152,1.169,2.492,1.397,3.588,2.361c-0.213-0.188-2.105,0.487-2.105,0.927c0,1.071,3.8,2.619,3.776,2.735  c-0.205,1.025-3.63,0.065-0.385,2.189c0.178,0.115,2.82,1.634,2.937,1.351c-0.211,0.517-1.38,0.209-1.673,0.575  c-0.834,1.042,4.521,3.01,4.521,2.692c0,0.503-1.54,0.462-1.54,0.883c0,0.559,2.579,1.891,3.042,2.1  c-0.767,0.21-1.596-0.11-2.167-0.68c-1.186-1.153-1.687,0.407-2.131,0.137c-0.406-0.249-1.179-1.065-1.646-1.065  c-0.423,0-1.172-0.995-1.598-0.622c-0.043,0.038-1.117,1.154-0.658,1.154c-0.581,0-4.151-3.345-4.547-1.6  c-0.084,0.427-4.759-0.586-5.573-0.59c-2.378-0.013-4.625-1.418-6.942-1.418c-1.234,0,5.702,4.702,5.702,5.04  c0,0.359-1.24,0.391-0.498,0.9c0.241,0.165,3.084,1.864,3.298,1.366c-0.301,0.828-2.107,0.32-0.458,1.41  c0.134,0.088,4.297,1.715,4.167,0.896c0.061,0.379-1.272,1.233-1.638,1.513c-0.975,0.71,4.836,2.095,4.836,0.982  c0,0.521-2.077,1.46-1.065,1.894c0.599,0.275,4.456,0.258,4.351,0.083c0.172,0.286-1.036,0.919-1.036,1.273  c0,1.014,4.708,0.82,4.837,0.083c-0.05,0.244-0.69,1.515-0.995,1.616c-0.302,0.101,1.668,0.3,1.751,0.284  c1-0.18,1.873-0.363,2.754-0.888c-0.057,0.096-0.356,0.798-0.356,0.923c0,0.564,3.849-0.373,3.849-0.42  c0,0.586,4.945-0.276,6.181-0.07c-0.357-0.059-3.882,0.624-3.827,0.8c0.28,0.256,0.542,0.528,0.785,0.821  c-0.031-0.368-2.838,0.59-3.18,0.876c-1.661,1.187,0.053,0.736,0.34,1.47c-0.139-0.354-3.199,1.933-3.199,2.526  c0.258,0.156,0.534,0.27,0.829,0.337c-0.076-0.264-1.927,2.183-1.972,2.28c-0.548,1.162,0.313,0.491,0.313,0.816  c0,0.1-2.097,4.506-1.078,4.31c1.948-0.433,3.407-4.642,5.317-5.28c0.109-0.039,0.078,1.034,0.059,1.178  c0.641-0.087,3.435-2.324,2.936-2.823c0.2,0.199-0.139,1.67,0.089,1.67c1.216,0,1.992-2.429,2.8-2.429  c0.038,0,2.864-1.355,2.918-1.313c0.354,0.299,1.993-2.756,2.001-0.441c0.012,3.151,0.385,6.27,0.543,9.415  c0.089,1.772-0.799,6.897,1.659,6.43c-0.099-1.324-0.814-13.913-0.533-13.913c0.35,0,0.512,1.481,0.811,1.748  c0.61,0.545,0.64-1.405,0.64-1.403c-0.073,0.072,1.509,3.445,1.965,3.445c0.327,0,0.567-1.339,0.754-1.512  c-0.399,0.368,1.583,3.913,2.182,3.938c0.132,0,0.321-1.107,0.534-0.947c0.652,0.571,3.456,6.867,3.521,6.867  c1.763,0,0.436-4.901,0.19-5.707c-0.043-0.146,0.775,0.073,0.717,0.154c0.714-1.234-1.965-4.401-2.6-5.127  c1.503,1.503-0.718-4.065-1.505-2.734c0.276-0.075,0.546-0.164,0.813-0.267c0.086-0.464-2.41-2.244-2.724-2.244  c1.198,0-0.479-1.48-0.166-1.48c0.816,0,2.422,2.753,3.357,2.103c0.178-0.138-0.265-0.966,0.096-0.848  c0.274,0.09,2.892,2.401,3.266,1.959c0.028-0.308,0.088-0.609,0.178-0.905c0.622,0,2.729,2.768,3.688,1.807  c0.048-0.039-0.403-1.51-0.361-1.51c1.442,0,3.451,3.81,3.451,0.633c-0.021,0.447,3.402,2.138,3.713,1.658  c0.31-0.483-0.574-1.811-0.574-2.291c-0.036,0.862,3.378,1.48,4.055,1.48c1.638,0,0.834-1.777,0.609-1.777  c1.787,0,3.422,2.033,3.088-0.475c0.017,0.12,1.89,0.566,2.17,0.286c0.274-0.258-0.353-0.85-0.182-1.03  c-0.089,0.094,2.364,0.238,2.521,0.206c1.261-0.248,0.289-0.519,0.289-1.153c0-0.807,6.144-0.936,6.404-0.971  c-0.732-0.899-3.511-1.322-3.888-1.954c-0.437-0.653-2.816-0.176-2.955-0.401c-0.275-0.553,0.675-0.805-0.496-1.033  c-0.283-0.056-3.151-0.34-3.151,0.175c0-0.304,0.767-1.076,0.428-1.351c-0.913-0.72-2.843,0.742-3.399,0.327  c-0.146-0.108,0.553-0.815,0.469-1.055c-0.26-0.659-4.068,0.003-4.068,0.443c0-0.114,0.792-1.376,0.485-1.465  c-0.453-0.134-4.213,0.556-3.969,1.009c-0.073-0.136,0.294-1.123,0.294-1.343c-0.051-0.559-3.248,1.023-3.435,1.023  c-0.235,0,0.671-1.157-0.514-1.008c-0.137,0.018-3.216,0.882-3.12,1.037c-0.144-0.287,0.356-0.619,0.219-0.936  c-0.265-0.717-3.772,1.344-3.735,1.435c0.086-0.313,0.093-0.628,0.023-0.942c-1.039,0-3.101,1.782-3.683,2.516  c0.02-0.206,0.001-1.088-0.083-1.172c0.25,0.249-4.155,3.05-3.521,1.414c0.123-0.315,2.074-0.832,1.888-1.159  c-0.198-0.007-0.32-0.114-0.367-0.32c0.62-0.618,4.557-0.893,4.642-1.463c0.04-0.327-1.129-0.729-1.03-1.023  c-0.102,0.354,5.09-1.338,5.458-1.338c0.053,0-0.731-0.912-0.71-0.954c0.245-0.306,5.002-0.122,5.002-1.082  c0-0.468-1.184-0.754-1.184-1.19c0,0.348,4.04-0.71,4.44-0.976c0.724-0.479-1.007-0.899-1.007-1.209  c0-0.303,4.796-0.274,4.796-1.682c0-0.464-1.362-0.679-1.362-1.147c0,0.59,3.856-0.817,4.15-0.817c1.678,0-0.773-2.202-0.994-2.107  c0.736-0.277,2.06,0.325,2.764-0.379c0.149-0.149,1.394-0.888,1.587-0.888c1.34,0-0.362-2.152-1.052-1.814  c1.186-0.582,2.482-0.556,3.645-1.423c2.465-1.855-0.983-0.972-0.983-1.865c0,0.009,2.544-1.46,2.921-1.643  c2.668-1.298,0.328-1.231-0.446-2.004c0.687,0.686,2.246-2.851,1.575-2.232c0.489-0.488,1.989-0.765,1.989-1.622  c0-0.335-0.77-0.195-0.77-0.42c0-1.753,5.564-3.637,5.564-5.625c0,0.16-8.047,2.611-7.784,3.44  c-0.034-0.114-4.303,0.528-5.104,0.692c-0.921,0.203-1.487,1.26-2.272,0.867c-0.626-0.313-0.867,0.862-1.32,0.862  c-0.235,0-0.051-0.814-0.51-0.752c-0.711,0.094-1.592,1.021-1.982,1.557c-0.061,0.082-1.062,1.733-1.238,1.558  c-0.534-0.581-0.151-1.178-0.97-1.178c-1.21,0-2.147,2.612-2.304,3.581c-0.599-1.6-1.238-2.765-2.445-0.408  c-0.537,1.077-1.067,1.896-1.036,3.191c-0.389-0.898-0.611-2.481-1.651-1.368c-0.595,0.643-1.019,3.666-1.213,3.795  c-0.049,0.028-1.078-1.45-1.113-1.505c-0.191-0.3-1.554,3.781-1.621,3.908c0.099-0.201-1.216-0.835-1.428-0.835  c-0.818,0.067-1.056,3.641-1.249,3.641c0.538,0-2.08-0.342-1.434-0.054c0.172,0.063,1.571-2.708,1.748-3.161  c0.714-1.838-1.361-1.762-0.942-2.173c0.949-0.922,0.882-2.467,0.882-3.61c0-1.563-1.047-0.089-1.895-0.089  c0.685,0,1.956-3.898,2.049-4.475c0.376-2.128-2.226,0.111-2.226-0.391c0-1.371,1.889-2.465,1.499-4.128  c-0.263-1.123-2.15,0.055-2.15-0.069c0-1.983,3.105-3.172,2.273-5.612c-0.654,0.343-1.736,1.237-2.492,1.237  c0.68,0,1.699-3.092,1.699-3.706c0-0.193,0.511-2.263-0.167-1.924c-0.301,0.167-1.912,0.663-1.953,0.723  c0.275-0.412,2.607-5.394,1.374-5.394c-0.453,0-1.925,1.432-2.144,1.214c-0.04-0.04,0.98-2.462,0.936-2.948  c-0.159,0.029-0.319,0.055-0.479,0.076c0.471-1.987,0.595-2.523-1.212-2.031c0.052-0.014,0.242-2.364,0.282-2.539  c0.355-1.508-0.297-0.817-0.918-0.817C45.326,10.105,45.442-1.171,44.216,0.1C44.039,0.29,44.376-0.065,44.216,0.1z"></path></svg>