<svg xmlns="http://www.w3.org/2000/svg" xmlns:xlink="http://www.w3.org/1999/xlink" version="1.1" x="0px" y="0px" viewBox="0 0 100 100" enable-background="new 0 0 100 100" xml:space="preserve"><path d="M91.4,70c0,0-9.402-5.4-21-5.4c-3.441,0-6.68,0.48-9.546,1.149c4.251-2.299,9.101-5.522,13.47-9.892  c10.935-10.935,14.709-24.889,14.709-24.889s-13.956,3.772-24.891,14.707c-3.363,3.364-6.048,7.013-8.154,10.454  C57.646,50.435,59,43.496,59,36c0-19.33-9-35-9-35s-9,15.67-9,35c0,7.495,1.354,14.434,3.011,20.128  c-2.107-3.44-4.791-7.089-8.154-10.452C24.923,34.741,10.969,30.967,10.969,30.967s3.772,13.956,14.707,24.89  c4.37,4.37,9.221,7.594,13.473,9.892C36.282,65.08,33.042,64.6,29.6,64.6c-11.598,0-21,5.4-21,5.4s9.402,5.4,21,5.4  c4.885,0,9.368-0.96,12.935-2.069c-1.562,1-3.187,2.229-4.698,3.74c-5.467,5.467-7.354,12.444-7.354,12.444  s6.979-1.887,12.445-7.354c2.27-2.27,3.915-4.794,5.071-6.978V99h4V75.187c1.157,2.183,2.802,4.707,5.071,6.977  c5.467,5.467,12.444,7.354,12.444,7.354s-1.887-6.979-7.354-12.445c-1.512-1.513-3.137-2.742-4.7-3.742  c3.567,1.109,8.053,2.07,12.938,2.07C81.998,75.4,91.4,70,91.4,70z M50,71h-0.137c0.018-0.05,0.037-0.102,0.054-0.149  C49.968,70.944,50,71,50,71s0.031-0.056,0.083-0.147c0.017,0.047,0.036,0.098,0.053,0.147H50z"></path></svg>