<svg xmlns="http://www.w3.org/2000/svg" xmlns:xlink="http://www.w3.org/1999/xlink" version="1.1" x="0px" y="0px" viewBox="0 0 64 64" style="enable-background:new 0 0 64 64;" xml:space="preserve"><title>Cannabis-leaves_expanded</title><path d="M42.2,48.6c2.8-1.8,5.4-3.9,7.8-6.2c7.2-7,12.5-19.1,12.5-19.1s-12.2,4.8-19.3,11.8c-2.6,2.6-5,5.4-7,8.5  c1.4-5.2,2-10.6,2.1-16C38.2,15.2,32,0,32,0l0,0.1L32,0c0,0-6.2,15.2-6.2,27.6c0,5.4,0.7,10.7,2.1,16c-2-3.1-4.4-5.9-7-8.5  c-7.2-7-19.3-11.8-19.3-11.8S6.8,35.5,14,42.4c2.4,2.3,5,4.4,7.8,6.2c-0.8,0-1.6,0-2.4,0c-7.7,0.1-17,3.5-17,3.5s9.5,3,17.2,2.9  c3-0.1,5.9-0.4,8.8-1c-0.5,0.5-1.1,1-1.7,1.6c-2,2.2-3.6,4.7-4.9,7.4c2.7-1.4,5.1-3.1,7.3-5.1c0.8-0.9,1.6-1.8,2.3-2.8L31.2,64h1.6  l-0.3-8.9c0.7,1,1.5,1.9,2.3,2.8c2.2,2,4.7,3.8,7.3,5.1c-1.3-2.7-3-5.2-4.9-7.4c-0.6-0.6-1.2-1.1-1.7-1.6c2.9,0.6,5.8,1,8.8,1  c7.7,0.1,17.2-2.9,17.2-2.9s-9.3-3.4-17-3.5C43.8,48.6,43,48.6,42.2,48.6z"></path></svg>