<svg viewBox="-107 -3 271 260" version="1.1" xmlns="http://www.w3.org/2000/svg" xmlns:xlink="http://www.w3.org/1999/xlink">
    <!-- Generator: Sketch 39.1 (31720) - http://www.bohemiancoding.com/sketch -->
    <desc>Created with Sketch.</desc>
    <defs></defs>
    <g id="Group" stroke="none" stroke-width="1" fill="none" fill-rule="evenodd" transform="translate(-104.000000, 0.000000)">
        <g id="scissor" transform="translate(127.108673, 127.108673) scale(-1, 1) rotate(19.000000) translate(-127.108673, -127.108673) translate(27.108673, 27.108673)" stroke="#979797" stroke-width="3">
            <path d="M0.892857143,199.047619 L175.892857,0.952380952" id="Line" stroke-linecap="square" transform="translate(88.392857, 100.000000) scale(1, -1) translate(-88.392857, -100.000000) "></path>
            <path d="M160.550825,181.59907 C160.550825,181.59907 176.751626,199.553244 176.75163,199.553245 C176.751635,199.553246 200,170.604339 200,150.47619 C200,116.81312 174.416271,89.5238095 142.857143,89.5238095 C125.152172,89.5238095 98.8463662,111.597234 98.8463662,111.597233 C98.8463662,111.597232 121.976894,137.832275 121.976894,137.832275 C121.976894,137.832275 160.550825,181.59907 160.550825,181.59907 Z" id="Oval"></path>
        </g>
        <g id="scissor" transform="translate(138.108673, 127.108673) rotate(19.000000) translate(-138.108673, -127.108673) translate(38.108673, 27.108673)" stroke="#979797" stroke-width="3">
            <path d="M0.892857143,199.047619 L175.892857,0.952380952" id="Line" stroke-linecap="square" transform="translate(88.392857, 100.000000) scale(1, -1) translate(-88.392857, -100.000000) "></path>
            <path d="M160.550825,181.59907 C160.550825,181.59907 176.751626,199.553244 176.75163,199.553245 C176.751635,199.553246 200,170.604339 200,150.47619 C200,116.81312 174.416271,89.5238095 142.857143,89.5238095 C125.152172,89.5238095 98.8463662,111.597234 98.8463662,111.597233 C98.8463662,111.597232 121.976894,137.832275 121.976894,137.832275 C121.976894,137.832275 160.550825,181.59907 160.550825,181.59907 Z" id="Oval"></path>
        </g>
    </g>
</svg>
