<svg xmlns:dc="http://purl.org/dc/elements/1.1/" xmlns:cc="http://creativecommons.org/ns#" xmlns:rdf="http://www.w3.org/1999/02/22-rdf-syntax-ns#" xmlns:svg="http://www.w3.org/2000/svg" xmlns="http://www.w3.org/2000/svg" xmlns:sodipodi="http://sodipodi.sourceforge.net/DTD/sodipodi-0.dtd" xmlns:inkscape="http://www.inkscape.org/namespaces/inkscape" version="1.1" x="0px" y="0px" viewBox="0 0 100 100"><g transform="translate(0,-952.36218)"><path style="text-indent:0;text-transform:none;direction:ltr;block-progression:tb;baseline-shift:baseline;color:#000000;enable-background:accumulate;" d="m 83.251872,962.36948 a 2.000248,2.0015784 0 0 0 -1.5626,1.0007 l -3.9064,6.7233 a 2.000248,2.0015784 0 0 0 -0.062,0.094 2.000248,2.0015784 0 0 0 -0.094,0.1876 l -11.6253,19.9825 0,-22.0464 a 2.0002481,2.0015785 0 0 0 -2,-2.0014 l -56.0014014,0 a 2.0002481,2.0015785 0 0 0 -0.1875,0 2.0002481,2.0015785 0 0 0 -1.8125,2.0014 l 0,72.04962 a 2.0002481,2.0015785 0 0 0 2,2.0014 l 56.0014014,0 a 2.0002481,2.0015785 0 0 0 2,-2.0014 l 0,-22.0151 a 2.0002481,2.0015785 0 0 0 0,-0.2502 l 23.563097,-40.65302 a 2.000248,2.0015784 0 0 0 0.094,-0.1251 l 0.031,-0.031 a 2.000248,2.0015784 0 0 0 0.062,-0.1251 2.000248,2.0015784 0 0 0 0.094,-0.1564 l 3.8751,-6.6921 a 2.000248,2.0015784 0 0 0 -0.7188,-2.7519 l -8.593997,-4.9409 a 2.000248,2.0015784 0 0 0 -1.1562,-0.2502 z m 0.875,4.722 5.125097,2.9396 -1.9375,3.3773 -5.125197,-2.9396 1.9376,-3.3773 z m -74.126801,3.221 52.001201,0 0,26.956 -8.1251,13.97842 a 2.000248,2.0015784 0 0 0 -0.2189,0.5942 c -0.1826,0.8748 -1.0004,4.4769 -1.8124,8.0367 -0.8122,3.56 -1.625,7.0735 -1.8438,8.1306 a 2.000248,2.0015784 0 0 0 3.2812,1.9076 c 0.8105,-0.7166 3.4638,-3.1804 6.1565,-5.6602 1.1333,-1.0436 1.5722,-1.4398 2.5625,-2.3453 l 0,16.4488 -52.001201,0 0,-68.04682 z m 70.157901,3.6275 5.1251,2.9395 -22.5942,38.96432 c -0.8866,0.7922 -3.3242,3.0657 -5.9377,5.4726 -0.6192,0.5702 -0.8083,0.7318 -1.4062,1.2821 0.1768,-0.7766 0.223,-1.0107 0.4062,-1.8138 0.7774,-3.4074 1.4614,-6.5811 1.7188,-7.7866 l 22.688,-39.05812 z m -59.3451,12.3835 a 2.0022657,2.0035974 0 0 0 0.1875,4.0028 l 30.0007,0 a 2.000248,2.0015784 0 1 0 0,-4.0028 l -30.0007,0 a 2.000248,2.0015784 0 0 0 -0.1875,0 z m 0,8.0055 a 2.0022657,2.0035974 0 1 0 0.1875,4.0028 l 30.0007,0 a 2.000248,2.0015784 0 1 0 0,-4.0028 l -30.0007,0 a 2.000248,2.0015784 0 0 0 -0.1875,0 z m 0,8.00552 a 2.0022657,2.0035974 0 0 0 0.1875,4.0028 l 30.0007,0 a 2.000248,2.0015784 0 1 0 0,-4.0028 l -30.0007,0 a 2.000248,2.0015784 0 0 0 -0.1875,0 z m 0,8.0055 a 2.0022657,2.0035974 0 1 0 0.1875,4.0028 l 30.0007,0 a 2.000248,2.0015784 0 1 0 0,-4.0028 l -30.0007,0 a 2.000248,2.0015784 0 0 0 -0.1875,0 z m 0,8.0056 a 2.0022442,2.0035759 0 1 0 0.1875,4.0027 l 24.0005,0 a 2.0002479,2.0015783 0 1 0 0,-4.0027 l -24.0005,0 a 2.0002479,2.0015783 0 0 0 -0.1875,0 z" fill="#000000" fill-opacity="1" stroke="none" marker="none" visibility="visible" display="inline" overflow="visible"></path></g></svg>