<svg xmlns="http://www.w3.org/2000/svg" xmlns:xlink="http://www.w3.org/1999/xlink" version="1.1" x="0px" y="0px" viewBox="0 0 100 100" enable-background="new 0 0 100 100" xml:space="preserve"><path d="M98.3,37.4c0.5,0.4,0.8,1,0.8,1.6v2.9v2.4H78.3v-2.4V39c0-0.6,0.3-1.2,0.8-1.6c2.6-2.2,5.5-3.6,6.1-3.9  c0.1,0,0.1-0.1,0.1-0.2v-1.5c-0.4-0.7-0.6-1.4-0.7-2.1c-0.2,0-0.5-0.3-0.9-1.5c-0.4-1.5,0-1.8,0.4-1.8c0,0,0.1,0,0.1,0  c-0.3-0.8-0.3-1.7-0.1-2.4c0.2-0.9,0.7-1.6,1.2-2.2c0.3-0.4,0.7-0.7,1.1-0.9c0.3-0.2,0.7-0.4,1.1-0.6v0c0.3-0.1,0.7-0.2,1-0.2  c0.1,0,0.3,0,0.4,0c0.9,0,1.6,0.2,2.1,0.6c0.9,0.5,1.2,1.1,1.2,1.1s2.3,0.2,1.3,4.9c0.3,0.1,0.5,0.5,0.2,1.8  c-0.3,1.2-0.7,1.5-0.9,1.5c-0.1,0-0.1,0-0.2-0.1c-0.1,0.5-0.3,1.1-0.5,1.7v1.8c0,0.1,0,0.1,0.1,0.2C92.8,33.8,95.7,35.2,98.3,37.4z   M92.2,65.1c-0.1,0-0.1-0.1-0.1-0.2v-1.8c0.3-0.5,0.4-1.1,0.5-1.7c0.1,0,0.1,0.1,0.2,0.1c0.2,0,0.5-0.3,0.9-1.5  c0.4-1.2,0.1-1.7-0.2-1.8c1-4.7-1.3-4.9-1.3-4.9s-0.3-0.7-1.2-1.1c-0.5-0.3-1.2-0.6-2.1-0.6c-0.1,0-0.3,0-0.4,0  c-0.4,0-0.7,0.1-1,0.2v0c-0.4,0.1-0.8,0.3-1.1,0.6c-0.4,0.3-0.8,0.6-1.1,0.9c-0.5,0.6-1,1.3-1.2,2.2c-0.2,0.8-0.2,1.6,0.1,2.4  c0,0-0.1,0-0.1,0c-0.4,0-0.8,0.3-0.4,1.8c0.3,1.2,0.6,1.5,0.9,1.5c0.1,0.7,0.3,1.4,0.7,2.1v1.5c0,0.1,0,0.1-0.1,0.2  c-0.6,0.3-3.4,1.7-6.1,3.9c-0.5,0.4-0.8,1-0.8,1.6v2.9v2.4h20.8v-2.4v-2.9c0-0.6-0.3-1.2-0.8-1.6C95.7,66.8,92.8,65.4,92.2,65.1z   M71.3,64.4c0,0.9,0.7,1.7,1.7,1.7h5.4v-3.3h-3.7V49.5v-3.3V33h3.7v-3.3H73c-0.9,0-1.7,0.7-1.7,1.7v14.9h-5.1v3.3h5.1V64.4z   M21.7,41.9V39c0-0.6-0.3-1.2-0.8-1.6c-2.6-2.2-5.5-3.6-6.1-3.9c-0.1,0-0.1-0.1-0.1-0.2v-1.8c0.3-0.5,0.4-1.1,0.5-1.7  c0.1,0,0.1,0.1,0.2,0.1c0.2,0,0.5-0.3,0.9-1.5c0.4-1.2,0.1-1.7-0.2-1.8c1-4.7-1.3-4.9-1.3-4.9s-0.3-0.7-1.2-1.1  c-0.5-0.3-1.2-0.6-2.1-0.6c-0.1,0-0.3,0-0.4,0c-0.4,0-0.7,0.1-1,0.2v0c-0.4,0.1-0.8,0.3-1.1,0.6c-0.4,0.3-0.8,0.6-1.1,0.9  c-0.5,0.6-1,1.3-1.2,2.2c-0.2,0.8-0.2,1.6,0.1,2.4c0,0-0.1,0-0.1,0c-0.4,0-0.8,0.3-0.4,1.8c0.3,1.2,0.6,1.5,0.9,1.5  c0.1,0.7,0.3,1.4,0.7,2.1v1.5c0,0.1,0,0.1-0.1,0.2c-0.6,0.3-3.4,1.7-6.1,3.9c-0.5,0.4-0.8,1-0.8,1.6v2.9v2.4h20.8V41.9z M21.7,73.5  v-2.9c0-0.6-0.3-1.2-0.8-1.6c-2.6-2.2-5.5-3.6-6.1-3.9c-0.1,0-0.1-0.1-0.1-0.2v-1.8c0.3-0.5,0.4-1.1,0.5-1.7c0.1,0,0.1,0.1,0.2,0.1  c0.2,0,0.5-0.3,0.9-1.5c0.4-1.2,0.1-1.7-0.2-1.8c1-4.7-1.3-4.9-1.3-4.9s-0.3-0.7-1.2-1.1c-0.5-0.3-1.2-0.6-2.1-0.6  c-0.1,0-0.3,0-0.4,0c-0.4,0-0.7,0.1-1,0.2v0C9.7,52,9.3,52.2,9,52.5c-0.4,0.3-0.8,0.6-1.1,0.9c-0.5,0.6-1,1.3-1.2,2.2  c-0.2,0.8-0.2,1.6,0.1,2.4c0,0-0.1,0-0.1,0c-0.4,0-0.8,0.3-0.4,1.8c0.3,1.2,0.6,1.5,0.9,1.5c0.1,0.7,0.3,1.4,0.7,2.1v1.5  c0,0.1,0,0.1-0.1,0.2c-0.6,0.3-3.4,1.7-6.1,3.9c-0.5,0.4-0.8,1-0.8,1.6v2.9v2.4h20.8V73.5z M28.7,31.3c0-0.9-0.7-1.7-1.7-1.7h-5.4  V33h3.7v13.2v3.3v13.2h-3.7V66H27c0.9,0,1.7-0.7,1.7-1.7V49.5h5.1v-3.3h-5.1V31.3z M45.9,25.8v-1.8c-0.5-0.8-0.7-1.7-0.8-2.5  c-0.3,0-0.6-0.4-1-1.8c-0.5-1.9,0-2.2,0.5-2.1c0,0-1.3-4.5,1.9-6.5c0,0-0.6-0.5-0.5-1.1c0,0,3.1,0.4,4.6,0c1.5-0.3,3.1,0.9,3.4,2  c0,0,3.2-0.3,1.8,5.5c0,0,0,0.1-0.1,0.3l0.1,0c0.4,0.1,0.6,0.6,0.2,2.1c-0.5,1.8-1,1.9-1.3,1.7c-0.1,0.6-0.3,1.3-0.6,2  c0,0.9,0,1.7,0,2c0,0.1,0,0.1,0.1,0.2c0.7,0.3,4.1,2.1,7.2,4.6c0.6,0.5,0.9,1.2,0.9,1.9v3.5v13c0,2-0.7,3.9-2,5.4l-2.6,3.1L55.5,88  c-0.1,1.1-1,1.9-2,1.9h-6.8c-1.1,0-2-0.8-2-1.9l-2.4-30.5l-2.6-3.1c-1.2-1.5-1.9-3.4-1.9-5.3v-13v-3.5c0-0.7,0.3-1.4,0.9-1.9  c3.2-2.6,6.6-4.3,7.2-4.6C45.8,26,45.9,25.9,45.9,25.8z M49.3,31.7l-1.3,10.7l2,2.2l1.9-2.2l-1.3-10.7c2.6-3.5-0.2-3.7-0.7-3.7h0h0  C49.5,28,46.8,28.1,49.3,31.7z"></path></svg>