<svg xmlns="http://www.w3.org/2000/svg" xmlns:xlink="http://www.w3.org/1999/xlink" version="1.1" x="0px" y="0px" viewBox="0 0 100 100" enable-background="new 0 0 100 100" xml:space="preserve"><g><path d="M58.715,31.75c4.898-2.063,11.828-5.844,13.186-11.131c0.504-1.961,0.475-4.957-2.526-8.091   c-3.3-3.444-6.309-3.465-8.251-2.872c-4.188,1.275-6.935,6.675-8.636,11.757c-1.661-5.051-4.374-10.461-8.565-11.755   c-1.945-0.602-4.961-0.593-8.289,2.855c-3.025,3.133-3.058,6.122-2.553,8.078c1.399,5.412,8.718,9.192,13.605,11.158H19.121v13.607   H24V92h56.75V45.357H85V31.75H58.715z M62.872,15.396c0.056-0.017,0.114-0.024,0.175-0.024c0.685,0,1.685,0.983,1.994,1.308   c1.322,1.38,1.124,2.154,1.05,2.445c-0.565,2.203-4.544,4.727-8.612,6.593C58.945,20.571,61.074,15.942,62.872,15.396z    M38.892,19.091c-0.073-0.283-0.268-1.035,1.06-2.409c0.315-0.326,1.328-1.316,2.021-1.316c0.063,0,0.123,0.009,0.181,0.026   c1.772,0.546,3.853,5.09,5.277,10.14C43.397,23.72,39.452,21.259,38.892,19.091z M22.121,42.357V34.75h26.65v7.607h-21.71v3h21.71   V89H27V42.357H22.121z M57.027,89V45.357H77.75V89H57.027z M82,42.357h-4h-0.25H57.027V34.75H82V42.357z"></path></g></svg>