<svg xmlns="http://www.w3.org/2000/svg" xmlns:xlink="http://www.w3.org/1999/xlink" version="1.1" x="0px" y="0px" viewBox="0 0 100 100" enable-background="new 0 0 100 100" xml:space="preserve"><path d="M78.3,32.4l2.7-2.7l1.2,1.2l3.1-3.1l-6.6-6.6l-3.1,3.1l1.2,1.2l-3.2,3.2c-3.3-2.2-6.9-4-10.8-5.1c1.7-2.2,2.7-5,2.7-8  c0-7.3-5.9-13.2-13.2-13.2S39.1,8.2,39.1,15.5c0,3,1,5.8,2.7,8c-5.3,1.5-10.2,4.2-14.4,7.9l2.4,2.8l0.7,0.8c0,0,0,0,0,0l1.8,2  c5.5-4.8,12.6-7.5,20-7.5C69,29.4,82.7,43,82.7,59.7S69,90.1,52.3,90.1S21.9,76.5,21.9,59.7c0-1.4,0.1-2.7,0.3-4l2.4,3.7l1-14.2  l0.5-7.3v0l0,0l-8.9,7.8L10,52.2l5.4-0.4c-0.6,2.6-0.9,5.3-0.9,7.9c0,20.8,16.9,37.7,37.7,37.7S90,80.5,90,59.7  C90,49,85.5,39.3,78.3,32.4z M59,22.6c-1.2-0.2-2.5-0.4-3.8-0.5v-3.4h1.7v-4.5h-9.3v4.5h1.7v3.4c-1.3,0.1-2.5,0.3-3.8,0.5  c-1.9-1.8-3.1-4.3-3.1-7.1c0-5.4,4.4-9.8,9.8-9.8s9.8,4.4,9.8,9.8C62.1,18.3,60.9,20.8,59,22.6z"></path><path d="M52.5,72.1c-3.7,0-5.8-2-6.5-5.9L39,68c1.4,6.3,5.1,9.8,11,10.4v5.4h4.5v-5.4c3.6-0.4,6.3-1.6,8.2-3.7  c1.9-2.1,2.8-4.8,2.8-7.9c0-2.1-0.5-3.9-1.4-5.4c-0.9-1.5-2.1-2.8-3.7-3.6c-1.5-0.9-3.7-1.8-6.4-2.8c-2.5-0.9-4.1-1.7-4.8-2.3  c-0.7-0.6-1.1-1.5-1.1-2.6c0-1.1,0.4-2.1,1.2-2.9c0.8-0.8,1.8-1.2,3.1-1.2c2.6,0,4.4,1.8,5.7,5.3l6.3-2.6c-1.5-5.1-4.8-8-9.9-8.6  v-4.2H50v4.2c-3.4,0.5-5.8,1.8-7.4,3.9c-1.6,2.1-2.3,4.5-2.3,7.2c0,2,0.4,3.8,1.3,5.3c0.9,1.5,2,2.7,3.4,3.6  c1.4,0.8,3.4,1.7,5.9,2.6c2.8,1,4.6,1.8,5.4,2.4c0.8,0.6,1.2,1.6,1.2,2.8c0,1.2-0.4,2.2-1.2,3.1C55.4,71.7,54.2,72.1,52.5,72.1z"></path></svg>