<svg xmlns="http://www.w3.org/2000/svg" xmlns:xlink="http://www.w3.org/1999/xlink" version="1.1" x="0px" y="0px" viewBox="0 0 100 100" style="enable-background:new 0 0 100 100;" xml:space="preserve"><style type="text/css">
	.st0{fill-rule:evenodd;clip-rule:evenodd;}
</style><circle class="st0" cx="49.7" cy="21.3" r="7.5"></circle><path class="st0" d="M61.8,42.7c0-6.7-5.4-12.1-12.1-12.1S37.5,36,37.5,42.7H61.8z"></path><circle class="st0" cx="18.7" cy="68" r="5.7"></circle><path class="st0" d="M28,84.2c0-5.1-4.1-9.2-9.2-9.2s-9.2,4.1-9.2,9.2H28z"></path><circle class="st0" cx="50" cy="68" r="5.7"></circle><path class="st0" d="M59.2,84.2c0-5.1-4.1-9.2-9.2-9.2s-9.2,4.1-9.2,9.2H59.2z"></path><circle class="st0" cx="81.2" cy="68" r="5.7"></circle><path class="st0" d="M90.4,84.2c0-5.1-4.1-9.2-9.2-9.2S72,79.2,72,84.2H90.4z"></path><polygon class="st0" points="16,46.7 16,48.2 16,52.4 16,58.1 21.7,58.1 21.7,52.4 47.2,52.4 47.2,58.1 52.8,58.1 52.8,52.4   78.3,52.4 78.3,58.1 84,58.1 84,52.4 84,48.2 84,46.7 "></polygon></svg>