<svg xmlns:dc="http://purl.org/dc/elements/1.1/" xmlns:cc="http://creativecommons.org/ns#" xmlns:rdf="http://www.w3.org/1999/02/22-rdf-syntax-ns#" xmlns:svg="http://www.w3.org/2000/svg" xmlns="http://www.w3.org/2000/svg" xmlns:sodipodi="http://sodipodi.sourceforge.net/DTD/sodipodi-0.dtd" xmlns:inkscape="http://www.inkscape.org/namespaces/inkscape" fill="#000000" version="1.1" x="0px" y="0px" viewBox="0 0 100 100"><path style="font-size:medium;font-style:normal;font-variant:normal;font-weight:normal;font-stretch:normal;text-indent:0;text-align:start;text-decoration:none;line-height:normal;letter-spacing:normal;word-spacing:normal;text-transform:none;direction:ltr;block-progression:tb;writing-mode:lr-tb;text-anchor:start;baseline-shift:baseline;opacity:1;color:#000000;fill:#000000;fill-opacity:1;stroke:none;stroke-width:3.99999976000000010;marker:none;visibility:visible;display:inline;overflow:visible;enable-background:accumulate;font-family:Sans;-inkscape-font-specification:Sans" d="M 59 22 C 50.739417 22 44 28.739417 44 37 C 44 45.260582 50.739417 52 59 52 C 67.260582 52 74 45.260582 74 37 C 74 28.739417 67.260582 22 59 22 z M 59 26 C 65.098821 26 70 30.901179 70 37 C 70 43.098821 65.098821 48 59 48 C 52.901179 48 48 43.098821 48 37 C 48 30.901179 52.901179 26 59 26 z M 58.78125 27.96875 A 2.0001996 2.0001996 0 0 0 57.1875 29.15625 C 56.454641 29.286825 55.751537 29.508051 55.09375 29.90625 C 53.907641 30.624274 53 32.118602 53 33.65625 C 53 34.828926 53.471499 35.889269 54.09375 36.625 C 54.716001 37.360731 55.459528 37.827665 56.125 38.15625 C 57.455944 38.813419 58.71875 38.96875 58.71875 38.96875 C 58.71875 38.96875 59.455944 39.107146 60.125 39.4375 C 60.459528 39.602677 60.716001 39.817703 60.84375 39.96875 C 60.971499 40.119797 61 40.139209 61 40.34375 C 61 40.648951 61.05224 40.511119 60.8125 40.65625 C 60.572756 40.801381 59.914648 41 59 41 C 57.201663 41 56.03125 40.28125 56.03125 40.28125 A 2.0043897 2.0043897 0 0 0 53.96875 43.71875 C 53.96875 43.71875 55.242472 44.499603 57.1875 44.84375 A 2.0001996 2.0001996 0 0 0 60.8125 44.84375 C 61.545359 44.713175 62.248463 44.491949 62.90625 44.09375 C 64.092359 43.375726 65 41.881398 65 40.34375 C 65 39.171074 64.528501 38.110731 63.90625 37.375 C 63.283999 36.639269 62.540472 36.172335 61.875 35.84375 C 60.544056 35.186581 59.28125 35.03125 59.28125 35.03125 C 59.28125 35.03125 58.544056 34.892854 57.875 34.5625 C 57.540472 34.397323 57.283999 34.182297 57.15625 34.03125 C 57.028501 33.880203 57 33.860791 57 33.65625 C 57 33.351049 56.947756 33.488881 57.1875 33.34375 C 57.427244 33.198619 58.085352 33 59 33 C 60.798337 33 61.96875 33.71875 61.96875 33.71875 A 2.0043897 2.0043897 0 0 0 64.03125 30.28125 C 64.03125 30.28125 62.757528 29.500397 60.8125 29.15625 A 2.0001996 2.0001996 0 0 0 58.96875 27.96875 A 2.0001996 2.0001996 0 0 0 58.78125 27.96875 z M 28.78125 46 C 25.827924 46.084372 22.549812 46.685238 19.1875 48.15625 A 2.0001999 2.0001999 0 0 0 18 50 L 18 66 A 2.0001999 2.0001999 0 1 0 22 66 L 22 51.46875 C 24.824528 50.425771 27.554868 49.954298 29.96875 50 C 34.756722 50.09065 39.061777 51.926302 43.71875 53.90625 C 48.375723 55.886198 53.382509 58 59.375 58 C 60.205947 58 61.125 59.026013 61.125 60 C 61.125 60.973986 60.205946 62 59.375 62 L 46 62 A 2.0001999 2.0001999 0 1 0 46 66 L 59.375 66 C 62.699054 66 65.125 63.14144 65.125 60 C 65.125 59.454043 64.951025 58.952849 64.8125 58.4375 L 76.09375 56.03125 C 77.169457 56.084594 78 56.907807 78 58 C 78 58.545024 77.748495 58.984815 77.40625 59.34375 L 52.40625 73.9375 C 48.969714 73.833767 45.693865 72.492133 41.96875 70.65625 C 38.096316 68.747763 33.8013 66.402669 28.5 65.0625 A 2.0009763 2.0009763 0 0 0 27.5 68.9375 C 32.218537 70.130347 36.214078 72.291741 40.1875 74.25 C 44.160922 76.208259 48.177249 78 52.8125 78 A 2.0001999 2.0001999 0 0 0 53.8125 77.71875 L 79.78125 62.625 A 2.0001999 2.0001999 0 0 0 80.15625 62.34375 C 81.299312 61.253309 82 59.695794 82 58 C 82 54.70998 79.290019 52 76 52 A 2.0001999 2.0001999 0 0 0 75.59375 52.03125 L 62.21875 54.90625 C 61.381128 54.391702 60.45428 54 59.375 54 C 54.324314 54 49.915173 52.188898 45.28125 50.21875 C 40.647327 48.248602 35.786517 46.108964 30.03125 46 C 29.623548 45.992281 29.203154 45.987947 28.78125 46 z "></path></svg>