<svg xmlns="http://www.w3.org/2000/svg" xmlns:xlink="http://www.w3.org/1999/xlink" version="1.1" x="0px" y="0px" viewBox="0 0 100 100" enable-background="new 0 0 100 100" xml:space="preserve"><g><circle cx="20.126" cy="25.997" r="5.875"></circle><circle cx="80.209" cy="25.482" r="5.875"></circle><path d="M32.365,45.97l-0.978-9.242c-0.203-1.627-1.585-2.848-3.225-2.85L12.149,33.86c-1.683-0.002-3.09,1.281-3.243,2.958   c-0.002-1.108-0.605,8.935-0.89,18.144c-0.004,0.129,0.001,0.256,0.02,0.383c0.495,3.269,1.769,7.47,8.43,9.609   c3.983,1.279,4.831-1.878,3.302-3.76c-1.5-1.846-2.84-3.309-3.744-4.629c-0.844-1.233-0.681-4.745-0.652-5.174   c1.169-0.682,3.182-1.513,4.079-1.874C23.244,47.994,27.624,46.82,32.365,45.97z"></path><path d="M92.44,60.673c-0.565,0.978-1.314,1.925-2.315,2.795c-0.359,3.115-4.321,6.446-10.757,9.001   c-7.743,3.073-18.095,4.765-29.15,4.765c-11.055,0-21.407-1.692-29.15-4.765c-6.554-2.601-10.545-6.008-10.776-9.171   c-0.968-0.88-1.687-1.835-2.229-2.816c-0.259,0.686,1.37,25.259,1.37,25.259h5.059l-0.136-13.591   c4.437,2.736,10.804,4.93,18.341,6.281l1.162,16.554h4.994l1.28-15.539c3.234,0.311,6.609,0.48,10.085,0.48   c3.352,0,6.609-0.158,9.738-0.449l1.079,15.507h4.994l1.361-16.492c7.693-1.346,14.188-3.567,18.694-6.346l-0.119,13.363h5.059   C91.024,85.509,92.657,61.298,92.44,60.673z"></path><path d="M68.248,45.97l0.978-9.242c0.203-1.627,1.585-2.848,3.225-2.85l16.014-0.017c1.683-0.002,3.09,1.281,3.243,2.958   c0.002-1.108,0.605,8.935,0.89,18.144c0.004,0.129-0.001,0.256-0.02,0.383c-0.495,3.269-1.769,7.47-8.43,9.609   c-3.983,1.279-4.831-1.878-3.302-3.76c1.5-1.846,2.84-3.309,3.744-4.629c0.844-1.233,0.681-4.745,0.652-5.174   c-1.169-0.682-3.182-1.513-4.079-1.874C77.369,47.994,72.989,46.82,68.248,45.97z"></path><path d="M17.26,54.427c1.075-0.555,2.25-1.088,3.524-1.594c7.831-3.108,18.284-4.819,29.434-4.819s21.602,1.711,29.434,4.819   c1.344,0.533,2.58,1.097,3.702,1.685v-2.151c-7.815-3.828-19.754-6.275-33.136-6.275c-13.279,0-25.14,2.41-32.958,6.187V54.427z"></path><path d="M41.899,22.927c0-1.177,0.283-2.247,0.85-3.21s1.387-1.762,2.46-2.395c-2.148-1.221-3.222-2.95-3.222-5.186   c0-1.898,0.805-3.384,2.416-4.458s3.777-1.611,6.499-1.611c1.339,0,2.619,0.125,3.84,0.375c1.221,0.25,2.56,0.684,4.016,1.302   l-1.501,3.575c-1.707-0.736-3.001-1.199-3.884-1.39s-1.773-0.287-2.67-0.287c-2.854,0-4.281,0.802-4.281,2.405   c0,0.794,0.405,1.483,1.214,2.064c0.809,0.581,2.214,1.246,4.215,1.997c2.574,1,4.413,2.078,5.517,3.232   c1.103,1.156,1.655,2.535,1.655,4.138c0,2.604-1.022,4.56-3.067,5.87c2.045,1.177,3.067,2.817,3.067,4.921   c0,2.089-0.868,3.74-2.604,4.955c-1.736,1.213-4.134,1.82-7.194,1.82c-3.119,0-5.664-0.522-7.635-1.567v-3.95   c1.133,0.588,2.405,1.07,3.818,1.446c1.412,0.374,2.714,0.562,3.906,0.562c3.457,0,5.186-0.964,5.186-2.891   c0-0.633-0.154-1.147-0.463-1.545c-0.309-0.397-0.831-0.794-1.567-1.192c-0.736-0.397-1.817-0.875-3.244-1.434   c-2.074-0.809-3.59-1.556-4.546-2.239c-0.956-0.685-1.659-1.456-2.107-2.318C42.124,25.057,41.899,24.059,41.899,22.927z    M45.96,22.485c0,0.662,0.177,1.25,0.53,1.765c0.353,0.515,0.93,1.022,1.732,1.523c0.802,0.5,2.232,1.162,4.292,1.986   c1.604-0.956,2.405-2.192,2.405-3.707c0-1.103-0.456-2.033-1.368-2.791s-2.538-1.527-4.877-2.307   c-0.794,0.235-1.445,0.688-1.953,1.357C46.213,20.982,45.96,21.706,45.96,22.485z"></path><polygon points="58.142,54.874 45.538,54.874 45.353,56.261 58.327,56.261  "></polygon><polygon points="59.344,63.883 44.336,63.883 44.151,65.269 59.529,65.269  "></polygon><polygon points="58.743,59.378 44.937,59.378 44.752,60.765 58.928,60.765  "></polygon><path d="M63.309,70.151H40.33l2.637-19.309h17.706L63.309,70.151z M42.426,68.322h18.787l-2.137-15.652H44.563L42.426,68.322z"></path><polygon points="38.039,64.116 39.648,52.086 36.849,52.086 35.241,64.116 36.37,66.711  "></polygon></g></svg>