<svg xmlns="http://www.w3.org/2000/svg" xmlns:xlink="http://www.w3.org/1999/xlink" version="1.1" x="0px" y="0px" viewBox="0 0 100 100" enable-background="new 0 0 100 100" xml:space="preserve"><g><path d="M30.601,31.901c0-0.198,0.019-0.392,0.031-0.587h-13.8c-2.544,0-4.607,2.063-4.607,4.608v16.646   c0,1.769,0.998,3.301,2.458,4.073l-2.129,10.414c0,1.853,1.502,3.352,3.354,3.352h2.042v11.038c0,1.962,1.59,3.554,3.552,3.554   h5.401c1.962,0,3.552-1.592,3.552-3.554V70.408h0.797l2.096-10.25c-1.739-1.816-2.747-4.255-2.747-6.854V31.901z"></path><circle fill="#000000" cx="24.203" cy="22.178" r="7.178"></circle><circle fill="#000000" cx="75.799" cy="22.178" r="7.178"></circle><path fill="#000000" d="M87.775,52.569V35.923c0-2.546-2.061-4.608-4.607-4.608H69.369c0.012,0.195,0.029,0.389,0.029,0.587v21.402   c0,2.599-1.006,5.035-2.742,6.852l2.096,10.253h0.793v11.038c0,1.962,1.59,3.554,3.553,3.554h5.4c1.963,0,3.553-1.592,3.553-3.554   V70.408h2.047c1.854,0,3.352-1.499,3.352-3.352L85.32,56.642C86.781,55.869,87.775,54.336,87.775,52.569z"></path><path d="M59.477,25.976H40.523c-3.271,0-5.922,2.652-5.922,5.926v21.402c0,2.273,1.281,4.244,3.16,5.236l-2.737,13.39   c0,2.382,1.931,4.31,4.312,4.31h2.626v14.19c0,2.523,2.044,4.57,4.567,4.57h6.944c2.521,0,4.568-2.047,4.568-4.57v-14.19h2.631   c2.383,0,4.309-1.928,4.309-4.31l-2.738-13.391c1.879-0.993,3.156-2.964,3.156-5.235V31.901   C65.398,28.628,62.752,25.976,59.477,25.976z"></path><path fill="#000000" d="M44.997,21.976c1.443,0.935,3.158,1.482,5.004,1.482c1.848,0,3.563-0.548,5.006-1.482   c2.539-1.645,4.223-4.498,4.223-7.746C59.23,9.135,55.102,5,50.001,5c-5.096,0-9.227,4.135-9.227,9.229   C40.774,17.478,42.458,20.331,44.997,21.976z"></path></g></svg>