<svg xmlns="http://www.w3.org/2000/svg" data-name="Layer 1" viewBox="0 0 1024 1024" x="0px" y="0px"><title>icon</title><path fill="#000000" d="M893.6 242.8h-132c75.7-49.7 116.4-113.5 92.7-151.6-11.7-18.9-37.8-28.3-71.5-28.3-42.5 0-96.9 14.8-150.1 43.3C579 134.8 538 171.3 517 205.5c-21-34.2-62-70.7-115.5-99.3-53.4-28.5-107.8-43.3-150.3-43.3-33.5 0-59.8 9.4-71.5 28.3-23.8 38.1 16.9 101.9 92.7 151.6H128.2c-35.8 0-65.1 29.3-65.1 65.1v111.2c0 35.8 29.3 65.1 65.1 65.1v422c0 28.8 23.4 52.3 52.3 52.3h660.9c28.7 0 52.3-23.5 52.3-52.3v-422c35.8 0 65.1-29.3 65.1-65.1V308c0-35.9-29.3-65.2-65.2-65.2z m-230.4-79.1c41.7-22.3 86.3-35.7 119.5-35.7 2.6 0 4.9 0.2 7 0.3-11.2 17.9-39.3 48.4-91 76.2-41.5 22.1-86.1 35.5-119.4 35.5-2.6 0-5-0.2-7.2-0.2 11.5-18 39.3-48.4 91.1-76.1z m-419-35.4c2.1-0.2 4.4-0.3 7.2-0.3 33.1 0 77.7 13.4 119.4 35.7 51.8 27.7 79.6 58.1 91 76.2-2.1 0-4.6 0.2-7.2 0.2-33.2 0-77.8-13.4-119.4-35.5-51.8-27.9-79.8-58.4-91-76.3zM128.2 308h350.1v111.2H128.2V308z m65.2 176.3h285v409.1h-285V484.3z m635.1 409.1h-285V484.3h285v409.1z m65.1-474.2H543.5V308h350.1v111.2z"></path></svg>