<svg xmlns:x="http://ns.adobe.com/Extensibility/1.0/" xmlns:i="http://ns.adobe.com/AdobeIllustrator/10.0/" xmlns:graph="http://ns.adobe.com/Graphs/1.0/" xmlns="http://www.w3.org/2000/svg" xmlns:xlink="http://www.w3.org/1999/xlink" version="1.1" x="0px" y="0px" viewBox="0 0 100 100" enable-background="new 0 0 100 100" xml:space="preserve"><metadata><sfw xmlns="http://ns.adobe.com/SaveForWeb/1.0/"><slices></slices><sliceSourceBounds width="1449" height="1448" y="-1448.9" x="0.5" bottomLeftOrigin="true"></sliceSourceBounds></sfw></metadata><path d="M53.4,54.6L50,64.5l-3.4-9.9v-1.3c-4.5,0-5.8-1.9-5.8-1.9s2.6,0,2.4-6.8c-0.2-6.7,3-7.9,4.1-8.3c3.4-1.3,5.1,0.8,5.1,0.8  c3.9-0.4,5,3.9,4.5,8.8c-0.5,4.9,2.2,5.6,2.2,5.6c-1.8,1.9-5.7,1.8-5.7,1.8L53.4,54.6L53.4,54.6L53.4,54.6z M97.6,50  c0,3.4-2.8,6.2-6.2,6.2c-2.5,0-4.6-1.5-5.6-3.6H72.7c-0.5,4.4-2.2,8.4-4.9,11.7l9.2,9.2c2.2-0.8,4.8-0.4,6.5,1.4  c2.4,2.4,2.4,6.3,0,8.7c-2.4,2.4-6.3,2.4-8.7,0c-1.8-1.8-2.2-4.3-1.4-6.5l-9.2-9.2c-3.3,2.6-7.3,4.4-11.7,4.9v13.1  c2.1,1,3.6,3.1,3.6,5.6c0,3.4-2.8,6.2-6.2,6.2c-3.4,0-6.2-2.8-6.2-6.2c0-2.5,1.5-4.6,3.6-5.6V72.7c-4.4-0.5-8.4-2.2-11.7-4.9  l-9.2,9.2c0.8,2.2,0.4,4.8-1.4,6.5c-2.4,2.4-6.3,2.4-8.7,0c-2.4-2.4-2.4-6.3,0-8.7c1.8-1.8,4.3-2.2,6.5-1.4l9.2-9.2  c-2.6-3.3-4.4-7.3-4.9-11.7H14.2c-1,2.1-3.1,3.6-5.6,3.6c-3.4,0-6.2-2.8-6.2-6.2c0-3.4,2.8-6.2,6.2-6.2c2.5,0,4.6,1.5,5.6,3.6h13.1  c0.5-4.4,2.2-8.4,4.9-11.7l-9.2-9.2c-2.2,0.8-4.8,0.4-6.5-1.4c-2.4-2.4-2.4-6.3,0-8.7c2.4-2.4,6.3-2.4,8.7,0  c1.8,1.8,2.2,4.3,1.4,6.5l9.2,9.2c3.3-2.6,7.3-4.4,11.7-4.9V14.2c-2.1-1-3.6-3.1-3.6-5.6c0-3.4,2.8-6.2,6.2-6.2  c3.4,0,6.2,2.8,6.2,6.2c0,2.5-1.5,4.6-3.6,5.6v13.1c4.4,0.5,8.4,2.2,11.7,4.9l9.2-9.2c-0.8-2.2-0.4-4.8,1.4-6.5  c2.4-2.4,6.3-2.4,8.7,0c2.4,2.4,2.4,6.3,0,8.7c-1.8,1.8-4.3,2.2-6.5,1.4l-9.2,9.2c2.6,3.3,4.4,7.3,4.9,11.7h13.1  c1-2.1,3.1-3.6,5.6-3.6C94.8,43.8,97.6,46.6,97.6,50z M67.7,50c0-9.8-7.9-17.7-17.7-17.7S32.3,40.2,32.3,50c0,5,2.1,9.6,5.5,12.8  l0.4-1.9c0.2-1.2,1-2.3,2.1-2.8l4.2-2.1l0.9-0.4l-1.4,4l1.9-0.1l4.2,5.1l4.2-5.1l1.9,0.1l-1.3-4c0.2,0.1,0.5,0.3,0.7,0.4l4.3,2.1  c1.1,0.6,1.9,1.6,2.1,2.8l0.4,1.9C65.6,59.6,67.7,55,67.7,50z"></path></svg>