<svg xmlns:dc="http://purl.org/dc/elements/1.1/" xmlns:cc="http://creativecommons.org/ns#" xmlns:rdf="http://www.w3.org/1999/02/22-rdf-syntax-ns#" xmlns:svg="http://www.w3.org/2000/svg" xmlns="http://www.w3.org/2000/svg" xmlns:sodipodi="http://sodipodi.sourceforge.net/DTD/sodipodi-0.dtd" xmlns:inkscape="http://www.inkscape.org/namespaces/inkscape" version="1.1" x="0px" y="0px" viewBox="0 0 100 100"><g transform="translate(0,-952.36218)"><path style="text-indent:0;text-transform:none;direction:ltr;block-progression:tb;baseline-shift:baseline;color:#000000;enable-background:accumulate;" d="M 19.8125,958.36438 A 2.0002,2.00015 0 0 0 18,960.36433 l 0,83.99787 a 2.0002,2.00015 0 0 0 2,2 l 41,0 a 2.0002,2.00015 0 0 0 1.40625,-0.5938 l 19,-18.9995 A 2.0002,2.00015 0 0 0 82,1025.3627 l 0,-64.99837 a 2.0002,2.00015 0 0 0 -2,-1.99995 l -60,0 a 2.0002,2.00015 0 0 0 -0.1875,0 z m 2.1875,3.9999 56,0 0,60.99852 -17,0 a 2.0001999,2.0001499 0 0 0 -0.1875,0 2.0001999,2.0001499 0 0 0 -1.8125,1.9999 l 0,16.9996 -37,0 0,-79.99802 z m 19.8125,5.99985 A 2.0021961,2.0021461 0 1 0 42,972.36403 l 16,0 a 2.0001999,2.0001499 0 1 0 0,-3.9999 l -16,0 a 2.0001999,2.0001499 0 0 0 -0.1875,0 z m -9,9.99975 A 2.0021961,2.0021461 0 1 0 33,982.36378 l 34,0 a 2.0002,2.00015 0 1 0 0,-3.9999 l -34,0 a 2.0002,2.00015 0 0 0 -0.1875,0 z m 16.96875,8.96852 A 2.0001999,2.0001499 0 0 0 48,989.3636 l 0,3.09368 c -2.917062,0.49038 -5,3.07828 -5,5.9061 0,3.40862 3.194003,5.99982 7,5.99982 2.229489,-10e-5 3,0.9767 3,2 0,1.2906 -0.503846,1.9999 -2,1.9999 l -6,0 a 2.0001999,2.0001499 0 1 0 0,3.9999 l 3,0 0,3 a 2.0001999,2.0001499 0 1 0 4,0 l 0,-3.0937 c 2.915371,-0.4918 5,-3.0793 5,-5.9061 0,-3.4086 -3.193929,-6 -7,-5.9999 -2.229563,0 -3,-0.97659 -3,-1.99992 0,-1.29071 0.503846,-1.99995 2,-1.99995 l 6,0 a 2.0001999,2.0001499 0 1 0 0,-3.9999 l -3,0 0,-2.99993 a 2.0001999,2.0001499 0 0 0 -2.21875,-2.0312 z M 31.8125,1023.3628 A 2.0021961,2.0021461 0 1 0 32,1027.3627 l 16,0 a 2.0001999,2.0001499 0 1 0 0,-3.9999 l -16,0 a 2.0001999,2.0001499 0 0 0 -0.1875,0 z m 31.1875,3.9999 12.15625,0 L 63,1039.5186 l 0,-12.1559 z m -31.1875,4.9998 A 2.0021961,2.0021461 0 1 0 32,1036.3624 l 16,0 a 2.0001999,2.0001499 0 1 0 0,-3.9999 l -16,0 a 2.0001999,2.0001499 0 0 0 -0.1875,0 z" fill="#000000" fill-opacity="1" stroke="none" marker="none" visibility="visible" display="inline" overflow="visible"></path></g></svg>