<svg xmlns="http://www.w3.org/2000/svg" xmlns:xlink="http://www.w3.org/1999/xlink" version="1.1" x="0px" y="0px" viewBox="0 0 90 90" enable-background="new 0 0 90 90" xml:space="preserve"><polygon points="18.173,22.665 0.5,28.181 11.88,64.641 18.173,62.677 "></polygon><polygon points="70.995,43.857 70.995,73.209 48.561,73.209 46.564,79.277 76.632,89.145 89.5,49.932 "></polygon><path d="M68.498,70.6H20.783V0.595h47.715V70.6z M24.104,67.277h41.074V3.917H24.104V67.277z"></path><rect x="29.279" y="15.151" width="30.723" height="2.081"></rect><rect x="29.279" y="19.986" width="30.723" height="2.082"></rect><rect x="29.279" y="25.114" width="30.723" height="2.081"></rect><rect x="29.279" y="29.952" width="30.723" height="2.081"></rect><path d="M44.368,57.577v-1.772c-1.251-0.054-2.461-0.389-3.171-0.802l0.56-2.181c0.783,0.43,1.883,0.82,3.095,0.82  c1.063,0,1.789-0.41,1.789-1.156c0-0.711-0.595-1.155-1.975-1.625c-1.994-0.668-3.356-1.602-3.356-3.408  c0-1.643,1.155-2.928,3.151-3.321v-1.771h1.825v1.641c1.25,0.057,2.09,0.318,2.705,0.615l-0.541,2.107  c-0.485-0.205-1.343-0.636-2.685-0.636c-1.214,0-1.604,0.522-1.604,1.045c0,0.616,0.652,1.009,2.238,1.604  c2.219,0.783,3.113,1.809,3.113,3.486c0,1.66-1.173,3.075-3.32,3.45v1.9h-1.825V57.577z"></path></svg>