<svg xmlns="http://www.w3.org/2000/svg" xmlns:xlink="http://www.w3.org/1999/xlink" xml:space="preserve" version="1.1" style="shape-rendering:geometricPrecision;text-rendering:geometricPrecision;image-rendering:optimizeQuality;" viewBox="0 0 8072 5349" x="0px" y="0px" fill-rule="evenodd" clip-rule="evenodd"><defs><style type="text/css">
   
    .fil0 {fill:black;fill-rule:nonzero}
   
  </style></defs><g><path class="fil0" d="M1977 1791c342,342 343,897 0,1240 -337,337 -900,340 -1240,0 -265,-265 -331,-668 -170,-1002 260,-535 983,-666 1410,-238z"></path><path class="fil0" d="M0 4761c0,-665 116,-1207 774,-1523 351,247 815,247 1166,0 876,420 774,1210 774,2008 -934,-81 -1810,-234 -2714,-485z"></path><path class="fil0" d="M7335 1791c-343,-343 -898,-343 -1241,0 -342,342 -342,897 0,1240 343,342 898,342 1241,0 342,-343 342,-898 0,-1240z"></path><path class="fil0" d="M5357 5248c984,-77 1776,-224 2715,-485l0 -300c0,-528 -307,-1001 -774,-1225 -352,247 -814,246 -1167,0 -467,224 -774,697 -774,1225l0 785z"></path><path class="fil0" d="M4898 357c-476,-476 -1248,-476 -1724,0 -476,476 -476,1248 0,1724 757,758 2081,232 2081,-862 0,-336 -136,-641 -357,-862z"></path><path class="fil0" d="M5691 3140c-191,-359 -495,-649 -863,-822 -472,341 -1112,341 -1584,0 -368,173 -672,463 -863,822 410,278 658,739 658,1235l0 896c651,110 1332,96 1994,0l0 -896c0,-496 248,-957 658,-1235z"></path></g></svg>