<svg xmlns="http://www.w3.org/2000/svg" xmlns:xlink="http://www.w3.org/1999/xlink" version="1.1" x="0px" y="0px" viewBox="0 0 100 100" style="enable-background:new 0 0 100 100;" xml:space="preserve"><g><path d="M85,36.5c0-0.8-0.2-1.5-0.6-2.1l0,0l-10-16c-0.7-1.2-2-1.9-3.4-1.9H29c-1.4,0-2.7,0.7-3.4,1.9l-10,16l0,0   C15.2,35,15,35.7,15,36.5v42c0,2.2,1.8,4,4,4h62c2.2,0,4-1.8,4-4V36.5z M73.8,32.5H54v-8h14.8L73.8,32.5z M31.2,24.5H46v8H26.2   L31.2,24.5z M56,74.5H44v-3h12V74.5z M77,74.5H64v-7c0-2.2-1.8-4-4-4H40c-2.2,0-4,1.8-4,4v7H23v-34h54V74.5z"></path><rect x="38.5" y="50.8" width="23" height="8"></rect></g></svg>