<svg xmlns="http://www.w3.org/2000/svg" xmlns:xlink="http://www.w3.org/1999/xlink" version="1.1" x="0px" y="0px" viewBox="0 0 64 64" style="enable-background:new 0 0 64 64;" xml:space="preserve"><style type="text/css">
	.st0{display:none;}
</style><path d="M53.2,41l-6.6-2.5c-1.1-0.4-2.3-0.1-3.2,0.7l-9.5,9.5l-16.5-8.9c-0.9-0.5-2-0.5-3,0.1c-0.9,0.5-1.5,1.5-1.5,2.6V44  c0,1.1,0.6,2.1,1.5,2.6l22.4,13c0.5,0.3,1,0.4,1.5,0.4c0.3,0,0.6-0.1,1-0.2L53.2,55H62V41H53.2z M38.7,57.8  c-0.3,0.1-0.6,0.1-0.8-0.1l-22.4-13c-0.3-0.2-0.5-0.5-0.5-0.9v-1.5c0-0.5,0.3-0.8,0.5-0.9c0.1-0.1,0.3-0.1,0.5-0.1  c0.1,0,0.3,0,0.5,0.1l21.6,11.7l7.5-5.4l-1.2-1.6l-6.5,4.6l-2.2-1.2l9-9c0.3-0.3,0.7-0.4,1.1-0.2l6.1,2.3v10.6L38.7,57.8z M60,53h-6  V43h6V53z"></path><rect x="56" y="45" width="2" height="4"></rect><path d="M33.6,23.1c-0.7,0-1.3-0.2-1.9-0.7L23.6,16H18v-2h6.4l8.7,6.9c0.2,0.2,0.5,0.2,0.8,0.2s0.5-0.2,0.7-0.4L35,20  c0.3-0.4,0.2-1-0.2-1.4l-8.5-6.8l1.2-1.6L36,17c1.3,1,1.5,2.8,0.5,4.1L36,21.9c-0.5,0.7-1.2,1.1-2,1.2  C33.9,23.1,33.8,23.1,33.6,23.1z"></path><rect x="6" y="9" width="2" height="4"></rect><path d="M37,31c-2.2,0-4-1.8-4-4s1.8-4,4-4s4,1.8,4,4S39.2,31,37,31z M37,25c-1.1,0-2,0.9-2,2s0.9,2,2,2s2-0.9,2-2S38.1,25,37,25z"></path><path d="M50,34H24v-1c0-0.6-0.4-1-1-1h-1V22h1c0.6,0,1-0.4,1-1v-1h3v2h-1.2c-0.3,0.9-1,1.5-1.8,1.8v6.3c0.9,0.3,1.5,1,1.8,1.8h22.3  c0.3-0.9,1-1.5,1.8-1.8v-6.3c-0.9-0.3-1.5-1-1.8-1.8H39v-2h11v1c0,0.6,0.4,1,1,1h1v10h-1c-0.6,0-1,0.4-1,1V34z"></path><path d="M44.4,17L31.2,5.7C30.7,5.3,30,5,29.3,5H2v15h8.6l6.2,5.3c0.5,0.5,1.2,0.7,2,0.7H19v11h36V17H44.4z M10,18H4V7h6V18z M53,35  H21V19h2v-2h-4v7h-0.3c-0.2,0-0.5-0.1-0.7-0.2l-6-5.3V7h17.3c0.2,0,0.5,0.1,0.7,0.2L41.3,17H39v2h14V35z"></path></svg>