<svg xmlns="http://www.w3.org/2000/svg" xmlns:xlink="http://www.w3.org/1999/xlink" version="1.1" x="0px" y="0px" viewBox="0 0 64 64" enable-background="new 0 0 64 64" xml:space="preserve"><g><g><path d="M51.562,21.769c2.314,0,4.181-2.389,4.181-5.375s-1.866-4.031-4.181-4.031c-2.314,0-4.181,1.12-4.181,4.031    S49.248,21.769,51.562,21.769z"></path><path d="M55.593,62.996L55.593,62.996c1.128,0,2.043-0.915,2.043-2.043V39.919c0-0.055,0.031-0.105,0.079-0.129l0.02-0.01    c0.807-0.41,1.315-1.238,1.315-2.143V26.42c0-0.853-0.405-1.663-1.106-2.151c-0.574-0.399-2.133-0.722-3.419-0.722l-2.071,6.113    l-0.345-3.981l0.766-1.152c0.152-0.266,0.108-0.609-0.133-0.828c-0.126-0.114-0.296-0.167-0.465-0.167h-1.432    c-0.17,0-0.34,0.053-0.465,0.167c-0.241,0.219-0.286,0.562-0.133,0.828l0.765,1.152l-0.343,3.984l-2.034-6.03    c-1.14,0-2.645,0.229-3.216,0.538c-0.839,0.454-1.345,1.349-1.345,2.303v11.162c0,0.905,0.508,1.733,1.315,2.143h0    c0.049,0.025,0.079,0.075,0.079,0.129v21.044c0,1.128,0.915,2.043,2.043,2.043h0.291c1.039,0,1.913-0.78,2.03-1.812l1.078-14.56    c0.056-0.335,0.335-0.614,0.67-0.614c0.335,0,0.67,0.279,0.67,0.614l1.319,14.61C53.709,62.244,54.572,62.996,55.593,62.996z"></path></g><g><path d="M32,16.09c2.314,0,4.181-2.389,4.181-5.375S34.314,6.683,32,6.683s-4.181,1.12-4.181,4.031S29.686,16.09,32,16.09z"></path><path d="M36.031,57.317L36.031,57.317c1.128,0,2.043-0.915,2.043-2.043V34.239c0-0.055,0.031-0.105,0.079-0.129l0.02-0.01    c0.807-0.41,1.315-1.238,1.315-2.143V20.741c0-0.853-0.405-1.663-1.106-2.151c-0.574-0.399-2.133-0.722-3.419-0.722l-2.071,6.113    L32.548,20l0.766-1.152c0.152-0.266,0.108-0.609-0.133-0.828c-0.126-0.114-0.296-0.167-0.465-0.167h-1.432    c-0.17,0-0.34,0.053-0.465,0.167c-0.241,0.219-0.286,0.562-0.133,0.828L31.45,20l-0.343,3.984l-2.034-6.03    c-1.14,0-2.645,0.229-3.216,0.538c-0.839,0.454-1.345,1.349-1.345,2.303v11.162c0,0.905,0.508,1.733,1.315,2.143l0,0    c0.049,0.025,0.079,0.075,0.079,0.129v21.044c0,1.128,0.915,2.043,2.043,2.043h0.291c1.039,0,1.913-0.78,2.03-1.812l1.078-14.56    c0.056-0.335,0.335-0.614,0.67-0.614s0.67,0.279,0.67,0.614l1.319,14.61C34.146,56.564,35.01,57.317,36.031,57.317z"></path></g><g><path d="M12.438,10.41c2.314,0,4.181-2.389,4.181-5.375s-1.866-4.031-4.181-4.031s-4.181,1.12-4.181,4.031    S10.124,10.41,12.438,10.41z"></path><path d="M16.468,51.638L16.468,51.638c1.128,0,2.043-0.915,2.043-2.043V28.56c0-0.055,0.031-0.105,0.079-0.129l0.02-0.01    c0.807-0.41,1.315-1.238,1.315-2.143V15.061c0-0.853-0.405-1.663-1.106-2.151c-0.574-0.399-2.133-0.722-3.419-0.722l-2.071,6.113    l-0.345-3.981l0.766-1.152c0.152-0.266,0.108-0.609-0.133-0.828c-0.126-0.114-0.296-0.167-0.465-0.167h-1.432    c-0.17,0-0.34,0.053-0.465,0.167c-0.241,0.219-0.286,0.562-0.133,0.828l0.765,1.152l-0.343,3.984l-2.034-6.03    c-1.14,0-2.645,0.229-3.216,0.538c-0.839,0.454-1.345,1.349-1.345,2.303v11.162c0,0.905,0.508,1.733,1.315,2.143h0    c0.049,0.025,0.079,0.075,0.079,0.129v21.044c0,1.128,0.915,2.043,2.043,2.043h0.291c1.039,0,1.913-0.78,2.03-1.812l1.078-14.56    c0.056-0.335,0.335-0.614,0.67-0.614c0.335,0,0.67,0.279,0.67,0.614l1.319,14.61C14.584,50.885,15.448,51.638,16.468,51.638z"></path></g></g></svg>