<svg xmlns="http://www.w3.org/2000/svg" xmlns:xlink="http://www.w3.org/1999/xlink" version="1.1" x="0px" y="0px" viewBox="0 0 128 128" style="enable-background:new 0 0 128 128;" xml:space="preserve"><path d="M68,28.9V21H53v8.4c-3.3,1-6.9,2.7-9.4,5.9c-2.7,3.4-4.1,7.5-4.1,12.2c0,2.6,0.6,5.2,1.6,7.6c1,2.2,2.3,4.3,3.9,6.3  c1.5,1.9,3.3,3.7,5.1,5.4c1.7,1.6,3.5,3.1,5.3,4.4c3,2.6,5.5,5,7.6,7.4c1.6,1.8,2.3,3.7,2.3,5.9c0,1.1-0.3,1.9-1.1,2.7  c-0.7,0.7-2,1.1-3.8,1.1c-1.8,0-3.1-0.4-3.8-1.1c-0.7-0.7-1-1.8-1-3.5v-2.6v-4h-4h-9.6h-4v7.2c0,4.7,1.6,8.8,4.9,12.1  c2.8,2.9,7.5,4.5,10.9,5.3v7.2h14v-7.2c3.1-0.8,6.8-2.3,9.7-5.1c3.4-3.3,5.2-7.7,5.2-13.1c0-3-0.6-5.8-1.7-8.3  c-1.1-2.4-2.4-4.6-4.1-6.7c-1.6-1.9-3.4-3.8-5.4-5.5c-1.8-1.5-3.7-3.1-5.5-4.6l-0.7-0.7l-3.3-3.2c-1.1-1.1-2.1-2.2-2.9-3.2  c-0.7-0.9-1.3-1.9-1.6-2.8c-0.3-0.8-0.5-1.7-0.5-2.8c0-1.2,0.4-1.8,0.8-2.1c0.8-0.7,2.2-0.9,3.3-0.9c1.2,0,2.7,0.2,3.4,1  c0.7,0.8,1.4,2,1.4,3.4V54h17v-7.4c0-4.9-1.6-9-4.8-12.4C75.3,31.3,71.3,29.7,68,28.9z M79,50.1h-9.3v-2.7c0-2.5-0.7-4.5-2-6.1  c-1.3-1.6-3.5-2.4-6.4-2.4c-2.6,0-4.6,0.6-6,1.9c-1.4,1.3-2.1,2.9-2.1,5.1c0,1.5,0.2,3,0.7,4.2c0.5,1.3,1.2,2.5,2.1,3.7  c0.9,1.2,2,2.5,3.3,3.7c1.3,1.2,2.6,2.5,4.1,4c1.9,1.6,3.7,3.1,5.6,4.7c1.8,1.6,3.5,3.3,5,5c1.5,1.8,2.7,3.7,3.6,5.7  c0.9,2,1.3,4.3,1.3,6.7c0,4.3-1.3,7.6-4,10.2c-2.6,2.5-7,4.1-10.9,4.7v6.6h-6v-6.6c-4.4-0.7-9.6-2.3-12.1-4.9  C43.5,91.1,42,88,42,84.4V81h10v2.7c0,2.8,0.5,4.9,2,6.3c1.5,1.5,3.7,2.2,6.6,2.2c2.9,0,5-0.7,6.6-2.2c1.5-1.5,2.3-3.3,2.3-5.5  c0-3.2-1.1-6-3.3-8.5c-2.2-2.5-4.9-5.1-8.1-7.8c-1.7-1.3-3.4-2.7-5.2-4.3c-1.7-1.5-3.3-3.2-4.7-4.9c-1.4-1.7-2.5-3.6-3.4-5.5  c-0.9-1.9-1.3-3.9-1.3-6c0-3.8,1.1-7,3.2-9.7c2.1-2.7,6-4.4,10.3-5.2V25h7v7.3c4.4,0.6,8.8,2.2,11.3,4.7c2.5,2.6,3.7,5.8,3.7,9.6  V50.1z"></path><path d="M16,18.8c0-6.6,4.3-12.6,10.8-15L25.5,0C17.4,2.9,12,10.5,12,18.8v11.1h9V25h-5V18.8z"></path><path d="M30,18.8c0-6.6,4.3-12.6,10.7-15L39.3,0C31.4,2.9,26,10.5,26,18.8v11.1h10V25h-6V18.8z"></path><path d="M107,98.1v4.9h5v6.3c0,6.6-4.3,12.6-10.8,15l1.4,3.8c8-2.9,13.5-10.5,13.5-18.8V98.1H107z"></path><path d="M102,98.1H92v4.9h6v6.3c0,6.6-4.3,12.6-10.7,15l1.4,3.8c8-2.9,13.3-10.5,13.3-18.8V98.1z"></path></svg>